<?xml version="1.0" encoding="UTF-8" standalone="no"?>
<svg
   width="45mm"
   height="45mm"
   version="1.1"
   id="svg1370"
   sodipodi:docname="qrcode.svg"
   inkscape:version="1.1.2 (0a00cf5339, 2022-02-04)"
   xmlns:inkscape="http://www.inkscape.org/namespaces/inkscape"
   xmlns:sodipodi="http://sodipodi.sourceforge.net/DTD/sodipodi-0.dtd"
   xmlns="http://www.w3.org/2000/svg"
   xmlns:svg="http://www.w3.org/2000/svg">
  <defs
     id="defs1374" />
  <sodipodi:namedview
     id="namedview1372"
     pagecolor="#ffffff"
     bordercolor="#000000"
     borderopacity="0.25"
     inkscape:pageshadow="2"
     inkscape:pageopacity="0.0"
     inkscape:pagecheckerboard="0"
     inkscape:document-units="mm"
     showgrid="false"
     inkscape:zoom="4.9624074"
     inkscape:cx="136.42572"
     inkscape:cy="118.89391"
     inkscape:window-width="1850"
     inkscape:window-height="1043"
     inkscape:window-x="70"
     inkscape:window-y="0"
     inkscape:window-maximized="1"
     inkscape:current-layer="g2071" />
  <g
     id="g2071"
     style="display:inline">
    <path
       id="rect2"
       d="m 15.117188,15.117188 v 3.78125 3.779296 3.779297 3.779297 3.779297 3.779297 3.779297 h 3.78125 3.779296 3.779297 3.779297 3.779297 3.779297 3.779297 v -3.779297 -3.779297 -3.779297 -3.779297 -3.779297 -3.779296 -3.78125 h -3.779297 -3.779297 -3.779297 -3.779297 -3.779297 -3.779296 z m 41.576171,0 v 3.78125 3.779296 3.779297 h -3.779297 v 3.779297 h 3.779297 v 3.779297 h 3.779297 v -3.779297 h 3.779297 v -3.779297 h -3.779297 v -3.779297 -3.779296 -3.78125 z m 3.779297,18.898437 v 3.779297 3.779297 h 3.779297 v -3.779297 -3.779297 z m 0,7.558594 h -3.779297 v -3.779297 -3.779297 h -3.779297 v 3.779297 3.779297 3.779297 h 3.779297 3.779297 z m 0,3.779297 v 3.78125 3.779296 h -3.779297 -3.779297 v -3.779296 h -3.779296 v 3.779296 h -3.78125 -3.779297 -3.779297 v -3.779296 h 3.779297 3.779297 v -3.78125 h -3.779297 -3.779297 -3.779297 -3.779297 v 3.78125 h 3.779297 v 3.779296 h -3.779297 v 3.779297 h 3.779297 v 3.779297 h -3.779297 v -3.779297 h -3.779297 -3.779297 v 3.779297 h 3.779297 v 3.779297 h -3.779297 v 3.779297 h 3.779297 3.779297 v 3.779297 h 3.779297 V 68.03125 64.251953 h 3.779297 3.779297 v -3.779297 h -3.779297 v -3.779297 h 3.779297 3.779297 3.78125 3.779296 3.779297 v 3.779297 3.779297 h 3.779297 v -3.779297 -3.779297 h 3.779297 v 3.779297 h 3.779297 3.779297 v 3.779297 3.779297 h 3.779297 v -3.779297 h 3.779297 v 3.779297 h 3.78125 v 3.779297 h 3.779297 v 3.779297 h 3.779296 3.779297 3.779297 V 71.810547 H 94.488281 V 68.03125 h -3.779297 -3.779296 v -3.779297 h -3.779297 v -3.779297 -3.779297 h -3.78125 v -3.779297 -3.779296 h -3.779297 v 3.779296 3.779297 H 71.810547 V 52.914062 H 68.03125 64.251953 v -3.779296 -3.78125 z M 94.488281,68.03125 h 3.779297 v 3.779297 h 3.779302 3.77929 v 3.779297 h -3.77929 -3.779302 v 3.779297 3.78125 h -3.779297 v 3.779297 h 3.779297 3.779302 v 3.779296 h -3.779302 v 3.779297 h 3.779302 v 3.779297 h 3.77929 3.7793 3.78125 3.7793 v 3.779302 h 3.77929 v 3.77929 h 3.7793 3.7793 v -3.77929 h -3.7793 v -3.779302 h -3.7793 v -3.779297 -3.779297 h -3.77929 v 3.779297 h -3.7793 -3.78125 v -3.779297 h -3.7793 v -3.779296 h 3.7793 v -3.779297 h -3.7793 -3.77929 v -3.78125 h 3.77929 3.7793 v -3.779297 -3.779297 h 3.78125 v 3.779297 h 3.7793 v -3.779297 h 3.77929 V 68.03125 64.251953 h -3.77929 -3.7793 v 3.779297 h -3.78125 v -3.779297 -3.779297 -3.779297 h -3.7793 v 3.779297 h -3.77929 v 3.779297 h -3.779302 v -3.779297 h 3.779302 v -3.779297 -3.779297 -3.779296 h 3.77929 v -3.78125 -3.779297 h -3.77929 v 3.779297 h -3.779302 v -3.779297 h -3.779297 v -3.779297 h 3.779297 v 3.779297 h 3.779302 v -3.779297 -3.779297 h 3.77929 3.7793 v -3.779297 -3.779297 h -3.7793 v 3.779297 h -3.77929 -3.779302 v 3.779297 h -3.779297 v -3.779297 h 3.779297 v -3.779297 h 3.779302 v -3.779297 -3.779296 -3.78125 h -3.779302 -3.779297 -3.779297 -3.779296 v 3.78125 h 3.779296 v 3.779296 h 3.779297 v 3.779297 h -3.779297 v 3.779297 h -3.779296 v 3.779297 h -3.779297 v 3.779297 3.779297 h 3.779297 v -3.779297 h 3.779296 v 3.779297 h -3.779296 v 3.779297 h 3.779296 v 3.78125 h 3.779297 3.779297 v 3.779296 3.779297 h -3.779297 v 3.779297 h -3.779297 v 3.779297 h 3.779297 z M 90.708984,49.134766 h -3.779296 v 3.779296 3.779297 h 3.779296 v -3.779297 z m -3.779296,0 v -3.78125 h -3.779297 v 3.78125 z m -3.779297,-3.78125 v -3.779297 h -3.78125 v -3.779297 h -3.779297 v 3.779297 3.779297 h 3.779297 z m -7.560547,-7.558594 v -3.779297 -3.779297 -3.779297 h -3.779297 v 3.779297 3.779297 H 68.03125 v 3.779297 3.779297 h 3.779297 v -3.779297 z m 7.560547,-3.779297 v -3.779297 h -3.78125 v 3.779297 z m 0,-3.779297 h 3.779297 v -3.779297 h -3.779297 z m 0,-3.779297 v -3.779297 -3.779296 h -3.78125 v -3.78125 h -3.779297 v 3.78125 h -3.779297 v 3.779296 h 3.779297 3.779297 v 3.779297 z m 22.675779,15.117188 h 3.7793 v -3.779297 h -3.7793 z m 3.7793,0 v 3.779297 3.78125 h 3.78125 v -3.78125 -3.779297 z m 3.78125,0 h 3.7793 v -3.779297 h -3.7793 z m 0,7.560547 v 3.779296 h -3.78125 v 3.779297 h 3.78125 v 3.779297 h 3.7793 3.77929 3.7793 v 3.779297 3.779297 h 3.7793 v -3.779297 h 3.77929 3.7793 v -3.779297 h -3.7793 -3.77929 v -3.779297 -3.779297 h -3.7793 v 3.779297 h -3.7793 v -3.779297 h -3.77929 v -3.779296 z m 3.7793,0 h 3.77929 3.7793 v -3.78125 h -3.7793 -3.77929 z m 18.89648,15.117187 v 3.779297 h 3.7793 v -3.779297 z m 3.7793,0 h 3.77929 v -3.779297 h -3.77929 z m 3.77929,-3.779297 h 3.78125 v -3.779297 -3.779297 h -3.78125 v 3.779297 z m 0,-7.558594 v -3.779296 h -3.77929 -3.7793 v 3.779296 3.779297 h 3.7793 v -3.779297 z m -7.55859,-3.779296 v -3.78125 h -3.7793 -3.77929 v 3.78125 h 3.77929 z m 11.33984,3.779296 h 3.7793 v -3.779296 -3.78125 h -3.7793 v 3.78125 z m 0,7.558594 v 3.779297 h 3.7793 3.7793 v -3.779297 h -3.7793 z m 0,3.779297 h -3.78125 v 3.779297 h -3.77929 v 3.779297 h 3.77929 v 3.779297 h -3.77929 v 3.779297 h 3.77929 v 3.78125 h -3.77929 v -3.78125 h -3.7793 v -3.779297 h 3.7793 v -3.779297 h -3.7793 V 68.03125 h -3.7793 -3.77929 v 3.779297 h -3.7793 -3.7793 v 3.779297 h 3.7793 v 3.779297 h 3.7793 3.77929 v 3.78125 h 3.7793 v 3.779297 h 3.7793 3.77929 v 3.779296 h -3.77929 v 3.779297 h 3.77929 3.78125 3.7793 3.7793 v -3.779297 -3.779296 h -3.7793 -3.7793 v -3.779297 -3.78125 h 3.7793 3.7793 v -3.779297 h -3.7793 v -3.779297 h -3.7793 V 68.03125 Z m -7.56054,30.236328 h -3.7793 v 3.779297 h 3.7793 z m 0,3.779297 v 3.779302 h 3.77929 v -3.779302 z m 3.77929,3.779302 v 3.77929 h -3.77929 v 3.7793 h 3.77929 3.78125 3.7793 3.7793 v -3.7793 -3.77929 h -3.7793 -3.7793 z m -3.77929,7.55859 h -3.7793 -3.7793 v -3.7793 h -3.77929 v 3.7793 3.78125 h 3.77929 3.7793 3.7793 z m 0,3.78125 v 3.7793 h 3.77929 v -3.7793 z m 3.77929,3.7793 v 3.77929 h 3.78125 v -3.77929 z m 3.78125,3.77929 v 3.7793 3.7793 h 3.7793 v -3.7793 h 3.7793 v -3.7793 h -3.7793 z m 0,7.5586 h -3.78125 v -3.7793 -3.7793 h -3.77929 -3.7793 v -3.77929 h -3.7793 -3.77929 v 3.77929 h -3.7793 -3.7793 -3.77929 v 3.7793 h -3.7793 v 3.7793 h 3.7793 3.77929 v 3.77929 3.7793 3.7793 3.77929 h 3.7793 v -3.77929 h 3.7793 v 3.77929 3.78125 h 3.77929 3.7793 v -3.78125 -3.77929 h 3.7793 v 3.77929 h 3.77929 v -3.77929 h 3.78125 v -3.7793 -3.7793 z m -3.78125,15.11718 v 3.78125 3.7793 3.7793 h 3.78125 3.7793 3.7793 v -3.7793 h -3.7793 v -3.7793 -3.78125 h -3.7793 z m -15.11718,3.78125 h -3.7793 v 3.7793 3.7793 h 3.7793 v -3.7793 z m -15.11719,-18.89843 h -3.78125 v 3.77929 h 3.78125 z m -3.78125,3.77929 h -3.7793 v 3.7793 3.7793 h 3.7793 v -3.7793 z m -3.7793,0 v -3.77929 -3.7793 h -3.77929 v 3.7793 h -3.779302 -3.779297 v 3.77929 h 3.779297 v 3.7793 h -3.779297 v -3.7793 h -3.779297 v -3.77929 h 3.779297 v -3.7793 h 3.779297 3.779302 v -3.7793 h -3.779302 v -3.77929 h 3.779302 v 3.77929 h 3.77929 v -3.77929 h 3.7793 3.78125 v 3.77929 h 3.7793 v -3.77929 -3.7793 h -3.7793 v -3.78125 h 3.7793 3.77929 v -3.7793 h -3.77929 v -3.77929 h -3.7793 v 3.77929 h -3.78125 v 3.7793 h -3.7793 v 3.78125 h -3.77929 -3.779302 v -3.78125 h -3.779297 -3.779297 v -3.7793 h -3.779296 -3.779297 v 3.7793 3.78125 h -3.78125 v -3.78125 h -3.779297 v 3.78125 h -3.779297 v -3.78125 H 68.03125 64.251953 v 3.78125 3.7793 h 3.779297 v 3.77929 h 3.779297 v 3.7793 3.7793 h 3.779297 v 3.77929 h 3.779297 v -3.77929 -3.7793 -3.7793 h 3.78125 v -3.77929 h 3.779297 v -3.7793 h 3.779296 3.779297 v 3.7793 3.77929 h -3.779297 -3.779296 v 3.7793 h -3.779297 v 3.7793 3.77929 h -3.78125 v 3.7793 3.7793 h 3.78125 v -3.7793 h 3.779297 3.779296 v 3.7793 h -3.779296 v 3.77929 h 3.779296 3.779297 v -3.77929 h 3.779297 v 3.77929 h -3.779297 v 3.78125 3.7793 h 3.779297 v -3.7793 h 3.779302 v -3.78125 -3.77929 -3.7793 -3.7793 z m -26.457029,7.5586 h -3.779297 v 3.77929 h 3.779297 z M 71.810547,128.50391 H 68.03125 v 3.77929 h 3.779297 z m 0,-18.89844 h 3.779297 v -3.7793 h 3.779297 v -3.77929 H 75.589844 V 98.267578 94.488281 H 71.810547 68.03125 64.251953 v 3.779297 h 3.779297 v 3.779302 h 3.779297 v 3.77929 z m -3.779297,-7.55859 h -3.779297 v 3.77929 h 3.779297 z m -3.779297,0 v -3.779302 h -3.779297 v 3.779302 z m 0,-7.558599 v -3.779297 h 3.779297 v -3.779296 h 3.779297 v -3.779297 -3.78125 -3.779297 H 68.03125 64.251953 V 71.810547 68.03125 h -3.779297 v 3.779297 3.779297 H 56.693359 52.914062 V 71.810547 68.03125 h -3.779296 v 3.779297 h -3.78125 v 3.779297 h 3.78125 v 3.779297 h -3.78125 v 3.78125 3.779297 h 3.78125 v 3.779296 h 3.779296 v -3.779296 h 3.779297 3.779297 v -3.779297 h -3.779297 -3.779297 v -3.78125 h 3.779297 3.779297 3.779297 3.779297 v 3.78125 h -3.779297 v 3.779297 h -3.779297 v 3.779296 h -3.779297 -3.779297 v 3.779297 3.779297 3.779302 h 3.779297 v -3.779302 -3.779297 h 3.779297 z m -11.337891,7.558599 h -3.779296 v -3.779302 h -3.78125 v 3.779302 h -3.779297 v 3.77929 h 3.779297 v 3.7793 h -3.779297 v 3.78125 h 3.779297 3.78125 3.779296 3.779297 v -3.78125 h -3.779297 -3.779296 v -3.7793 h 3.779296 z m 3.779297,7.55859 h 3.779297 v -3.7793 h -3.779297 z m 0,3.78125 v 3.7793 h -3.779297 v 3.77929 h 3.779297 v 3.7793 h -3.779297 -3.779296 -3.78125 v 3.7793 3.77929 3.7793 3.7793 h 3.78125 3.779296 3.779297 v 3.77929 3.78125 h -3.779297 v -3.78125 h -3.779296 v 3.78125 3.7793 h 3.779296 3.779297 3.779297 v -3.7793 h 3.779297 v -3.78125 h 3.779297 v -3.77929 h -3.779297 -3.779297 v -3.7793 -3.7793 h 3.779297 v -3.77929 -3.7793 -3.7793 h -3.779297 v -3.77929 -3.7793 z m -15.11914,0 h -3.779297 v -3.78125 h -3.779297 v -3.7793 -3.77929 -3.779302 h 3.779297 v -3.779297 h -3.779297 v -3.779297 h 3.779297 v -3.779296 h 3.779297 v -3.779297 h -3.779297 v -3.78125 h 3.779297 3.779297 v -3.779297 h -3.779297 -3.779297 -3.779297 v 3.779297 h -3.779297 -3.779297 v -3.779297 h 3.779297 v -3.779297 h -3.779297 -3.779297 v 3.779297 h -3.779296 v 3.779297 h -3.78125 v 3.78125 h 3.78125 3.779296 v 3.779297 h 3.779297 v -3.779297 h 3.779297 v 3.779297 3.779296 h -3.779297 -3.779297 v -3.779296 h -3.779296 -3.78125 v 3.779296 h 3.78125 v 3.779297 h 3.779296 v 3.779297 3.779302 h -3.779296 v -3.779302 -3.779297 h -3.78125 v 3.779297 3.779302 3.77929 3.7793 3.78125 h 3.78125 v -3.78125 -3.7793 h 3.779296 v 3.7793 3.78125 3.7793 h 3.779297 3.779297 v -3.7793 h 3.779297 v 3.7793 h -3.779297 v 3.77929 3.7793 h 3.779297 3.779297 3.779297 v -3.7793 h -3.779297 v -3.77929 h 3.779297 z M 18.898438,75.589844 v -3.779297 h -3.78125 v 3.779297 z m 0,-3.779297 h 3.779296 V 68.03125 h -3.779296 z m 0,-3.779297 v -3.779297 h -3.78125 v 3.779297 z m 0,-3.779297 h 3.779296 v -3.779297 h -3.779296 z m 22.675781,22.677735 v 3.779296 h -3.779297 v 3.779297 h 3.779297 v 3.779297 h 3.779297 v -3.779297 -3.779297 -3.779296 z m 0,11.33789 h -3.779297 v 3.779302 h 3.779297 z m -3.779297,11.337892 h 3.779297 v -3.7793 H 37.794922 Z M 45.353516,71.810547 V 68.03125 64.251953 h -3.779297 v 3.779297 h -3.779297 v 3.779297 h 3.779297 z m 0,-7.558594 h 3.78125 v -3.779297 h -3.78125 z m 26.457031,11.337891 h 3.779297 3.779297 3.78125 v -3.779297 h -3.78125 -3.779297 -3.779297 z m 0,-3.779297 V 68.03125 H 68.03125 v 3.779297 z m 0,15.119141 v 3.779296 h 3.779297 v -3.779296 z m 7.558594,15.117192 h 3.78125 v -3.779302 -3.779297 h -3.78125 v 3.779297 z m 11.339843,3.77929 h 3.779297 v -3.77929 h -3.779297 z m 0,-3.77929 v -3.779302 h 3.779297 v 3.779302 h 3.779297 3.779302 v -3.779302 h -3.779302 v -3.779297 h -3.779297 -3.779297 -3.779296 v 3.779297 3.779302 z m 30.236326,7.55859 v 3.78125 3.7793 h 3.7793 3.7793 v -3.7793 h -3.7793 v -3.78125 z m -15.11914,11.33984 v 3.7793 h 3.7793 v -3.7793 z m 26.45703,-15.11914 h 3.7793 v -3.77929 h -3.7793 z m -7.55859,-26.457029 h -3.7793 -3.77929 -3.7793 -3.78125 v 3.78125 h 3.78125 v 3.779297 h 3.7793 3.77929 v -3.779297 h 3.7793 z m 0,3.78125 v 3.779297 h 3.7793 V 83.150391 Z M 109.60547,52.914062 v -3.779296 h -3.7793 v 3.779296 z M 45.353516,45.353516 h 3.78125 v -3.779297 -3.779297 -3.779297 h -3.78125 v 3.779297 3.779297 z m 3.78125,-11.337891 h 3.779296 v -3.779297 h -3.779296 z m 3.779296,-7.558594 v -3.779297 h -3.779296 v 3.779297 z m -3.779296,-3.779297 v -3.779296 h -3.78125 v 3.779296 z m 64.251954,-7.560546 v 3.78125 h 3.7793 3.77929 v -3.78125 h -3.77929 z m 7.55859,3.78125 v 3.779296 h 3.7793 v -3.779296 z m 0,3.779296 h -3.77929 -3.7793 v 3.779297 3.779297 3.779297 h 3.7793 3.77929 v -3.779297 h -3.77929 v -3.779297 h 3.77929 z m 0,3.779297 v 3.779297 h 3.7793 v -3.779297 z m 0,7.558594 v 3.779297 3.779297 h 3.7793 v -3.779297 -3.779297 z m 7.5586,-18.898437 v 3.78125 3.779296 3.779297 3.779297 3.779297 3.779297 3.779297 h 3.77929 3.7793 3.7793 3.77929 3.78125 3.7793 3.7793 v -3.779297 -3.779297 -3.779297 -3.779297 -3.779297 -3.779296 -3.78125 h -3.7793 -3.7793 -3.78125 -3.77929 -3.7793 -3.7793 z m -109.605472,3.78125 h 3.779296 3.779297 3.779297 3.779297 3.779297 v 3.779296 3.779297 3.779297 3.779297 3.779297 h -3.779297 -3.779297 -3.779297 -3.779297 -3.779296 v -3.779297 -3.779297 -3.779297 -3.779297 z m 45.353515,0 v 3.779296 h 3.779297 v -3.779296 z m 41.574217,0 v 3.779296 h 3.7793 v -3.779296 z m 26.45703,0 h 3.7793 3.7793 3.77929 3.78125 3.7793 v 3.779296 3.779297 3.779297 3.779297 3.779297 h -3.7793 -3.78125 -3.77929 -3.7793 -3.7793 V 34.015625 30.236328 26.457031 22.677734 Z M 22.677734,22.677734 v 3.779297 3.779297 3.779297 h 3.779297 3.779297 3.779297 v -3.779297 -3.779297 -3.779297 h -3.779297 -3.779297 z m 113.384766,0 v 3.779297 3.779297 3.779297 h 3.7793 3.77929 3.78125 v -3.779297 -3.779297 -3.779297 h -3.78125 -3.77929 z M 22.677734,49.134766 v 3.779296 h 3.779297 v -3.779296 z m -7.560546,3.779296 v 3.779297 h 3.78125 V 52.914062 Z M 124.72461,90.708984 v 3.779297 h 3.7793 3.77929 v -3.779297 h -3.77929 z M 26.457031,102.04688 h 3.779297 v 3.77929 3.7793 h -3.779297 v -3.7793 z m 18.896485,15.11914 v 3.77929 h 3.78125 v -3.77929 z m -30.236328,3.77929 v 3.7793 h 3.78125 3.779296 v -3.7793 h -3.779296 z m 109.607422,3.7793 h 3.7793 3.77929 3.7793 v 3.7793 3.77929 3.7793 h -3.7793 -3.77929 -3.7793 v -3.7793 -3.77929 z m -109.607422,3.7793 v 3.77929 3.7793 3.7793 3.77929 3.78125 3.7793 3.7793 h 3.78125 3.779296 3.779297 3.779297 3.779297 3.779297 3.779297 v -3.7793 -3.7793 -3.78125 -3.77929 -3.7793 -3.7793 -3.77929 h -3.779297 -3.779297 -3.779297 -3.779297 -3.779297 -3.779296 z m 37.796874,0 h 3.779297 v 3.77929 3.7793 h -3.779297 v -3.7793 z m 75.589848,0 v 3.77929 h 3.77929 v -3.77929 z M 18.898438,132.2832 h 3.779296 3.779297 3.779297 3.779297 3.779297 v 3.7793 3.7793 3.77929 3.78125 3.7793 h -3.779297 -3.779297 -3.779297 -3.779297 -3.779296 v -3.7793 -3.78125 -3.77929 -3.7793 z m 120.943362,0 h 3.77929 v 3.7793 h -3.77929 z m -117.164066,3.7793 v 3.7793 3.77929 3.78125 h 3.779297 3.779297 3.779297 v -3.78125 -3.77929 -3.7793 h -3.779297 -3.779297 z m 90.708986,3.7793 v 3.77929 h 3.7793 v -3.77929 z m -41.576173,7.56054 v 3.7793 3.7793 h 3.779297 3.779297 3.78125 v -3.7793 h -3.78125 v -3.7793 h -3.779297 z m 34.015623,0 v 3.7793 h -3.77929 v 3.7793 h 3.77929 3.7793 v -3.7793 -3.7793 z m 7.56055,0 v 3.7793 h 3.7793 v 3.7793 h 3.77929 v -3.7793 -3.7793 h -3.77929 z m -49.134767,3.7793 v 3.7793 h 3.779297 v -3.7793 z m 71.810547,0 v 3.7793 h 3.7793 v -3.7793 z" />
  </g>
  <g
     style="display:inline;fill:none"
     id="g1385"
     transform="matrix(-0.01644064,0,0,0.01644064,93.45698,76.829426)">
    <path
       fill-rule="evenodd"
       clip-rule="evenodd"
       d="M 8,0 C 3.58,0 0,3.58 0,8 c 0,3.54 2.29,6.53 5.47,7.59 0.4,0.07 0.55,-0.17 0.55,-0.38 0,-0.19 -0.01,-0.82 -0.01,-1.49 C 4,14.09 3.48,13.23 3.32,12.78 3.23,12.55 2.84,11.84 2.5,11.65 2.22,11.5 1.82,11.13 2.49,11.12 3.12,11.11 3.57,11.7 3.72,11.94 4.44,13.15 5.59,12.81 6.05,12.6 6.12,12.08 6.33,11.73 6.56,11.53 4.78,11.33 2.92,10.64 2.92,7.58 2.92,6.71 3.23,5.99 3.74,5.43 3.66,5.23 3.38,4.41 3.82,3.31 c 0,0 0.67,-0.21 2.2,0.82 0.64,-0.18 1.32,-0.27 2,-0.27 0.68,0 1.36,0.09 2,0.27 1.53,-1.04 2.2,-0.82 2.2,-0.82 0.44,1.1 0.16,1.92 0.08,2.12 0.51,0.56 0.82,1.27 0.82,2.15 0,3.07 -1.87,3.75 -3.65,3.95 0.29,0.25 0.54,0.73 0.54,1.48 0,1.07 -0.01,1.93 -0.01,2.2 0,0.21 0.15,0.46 0.55,0.38 C 13.71,14.53 16,11.53 16,8 16,3.58 12.42,0 8,0 Z"
       transform="scale(64)"
       fill="#1b1f23"
       id="path1376"
       style="fill:#000000" />
  </g>
</svg>
